<svg width="190" height="192" xmlns="http://www.w3.org/2000/svg">
 <!-- Created with Method Draw - http://github.com/duopixel/Method-Draw/ -->
 <defs>
  <linearGradient y2="0" x2="1" y1="0" x1="0" id="svg_9">
   <stop offset="1" stop-color="#ffffff"/>
   <stop offset="1" stop-color="#000000"/>
  </linearGradient>
 </defs>
 <g>
  <title>background</title>
  <rect fill="url(#svg_9)" id="canvas_background" height="194" width="192" y="-1" x="-1"/>
  <g display="none" overflow="visible" y="0" x="0" height="100%" width="100%" id="canvasGrid">
   <rect fill="url(#gridpattern)" stroke-width="0" y="1" x="118.15126" height="256" width="256"/>
  </g>
 </g>
 <g>
  <title>Layer 1</title>
  <text font-style="normal" font-weight="normal" stroke="#000" transform="matrix(0.6924930493137889,0,0,0.6265265660696778,56.23124730487172,62.973662973067185) " xml:space="preserve" text-anchor="start" font-family="'Trebuchet MS', Gadget, sans-serif" font-size="178" id="svg_1" y="114.016278" x="-38.062908" stroke-width="2" fill="#8CD79F">RJ</text>
  <path id="svg_5" d="m0.000002,47.242828l0,0c0,-0.138071 0.223857,-0.25 0.499998,-0.25l0,0c0.132608,0 0.259784,0.026339 0.353552,0.073223c0.093768,0.046884 0.146446,0.110473 0.146446,0.176777l0,0c0,0.138071 -0.223857,0.25 -0.499998,0.25l0,0c-0.276141,0 -0.499998,-0.111929 -0.499998,-0.25zm0.499998,-0.25l0,0.500001m-0.499998,-0.25l0.999996,0" fill-opacity="null" stroke-opacity="null" stroke-width="0" stroke="#000" fill="#FFB27C"/>
  <path stroke="#000" id="svg_7" d="m130.736858,84.620655l-13.180692,0l-4.068707,-12.788344l-0.571299,1.787157l-3.502209,11.003639l-13.177091,-0.002452l10.660254,7.911049l-4.075909,12.796924l10.662654,-7.911049l10.665054,7.914726l-4.077109,-12.800602l10.665054,-7.911049zm-15.840354,10.813646l-1.410245,-1.045572l-1.410245,1.046798l-4.683214,3.473801l1.788311,-5.618879l0.540094,-1.693999l-1.412646,-1.048024l-4.680814,-3.473801l7.53131,0l0.540094,-1.692773l1.787111,-5.618879l1.787111,5.615202l0.538894,1.692773l7.538511,0l-4.688015,3.476253l-1.413846,1.046798l0.538894,1.69645l1.791912,5.618879l-4.683214,-3.475027z" fill-opacity="null" stroke-opacity="null" fill="#FFB27C"/>
 </g>
</svg>